<svg width="33.000000" height="28.040894" viewBox="0 0 33 28.0409" fill="none" xmlns="http://www.w3.org/2000/svg" xmlns:xlink="http://www.w3.org/1999/xlink">

	<defs/>
	<path id="Vector" d="M6.53 3.26C6.53 5.06 5.06 6.53 3.26 6.53C1.46 6.53 0 5.06 0 3.26C0 1.46 1.46 0 3.26 0C5.06 0 6.53 1.46 6.53 3.26Z" fills="currentColor" fill-opacity="1.000000" fill-rule="evenodd"/>
	<path id="Vector" d="M13.06 3.91L31.34 3.91" stroke="#F55F42" stroke-opacity="1.000000" stroke-width="2.000000" stroke-linejoin="round" stroke-linecap="round"/>
	<path id="Vector" d="M6.53 15.02C6.53 16.82 5.06 18.28 3.26 18.28C1.46 18.28 0 16.82 0 15.02C0 13.21 1.46 11.75 3.26 11.75C5.06 11.75 6.53 13.21 6.53 15.02Z" fills="currentColor" fill-opacity="1.000000" fill-rule="evenodd"/>
	<path id="Vector" d="M6.53 26.77C6.53 28.57 5.06 30.04 3.26 30.04C1.46 30.04 0 28.57 0 26.77C0 24.97 1.46 23.51 3.26 23.51C5.06 23.51 6.53 24.97 6.53 26.77Z" fills="currentColor" fill-opacity="1.000000" fill-rule="evenodd"/>
	<path id="Vector" d="M13.06 27.42L31.34 27.42" stroke="#F55F42" stroke-opacity="1.000000" stroke-width="2.000000" stroke-linejoin="round" stroke-linecap="round"/>
	<path id="Vector" d="M13.71 15.67L32 15.67" stroke="#F55F42" stroke-opacity="1.000000" stroke-width="2.000000" stroke-linejoin="round" stroke-linecap="round"/>
</svg>
