<svg width="30" height="29" viewBox="0 0 30 29" fill="none" xmlns="http://www.w3.org/2000/svg">
<path d="M22.4727 0H7.49089C3.35592 0 0 3.23042 0 7.21412V15.8769V17.3255C0 21.3092 3.35592 24.5396 7.49089 24.5396H9.73815C10.1427 24.5396 10.682 24.8004 10.9367 25.1191L13.184 28.0018C14.1728 29.2766 15.7908 29.2766 16.7796 28.0018L19.0269 25.1191C19.3115 24.7569 19.761 24.5396 20.2254 24.5396H22.4727C26.6076 24.5396 29.9635 21.3092 29.9635 17.3255V7.21412C29.9635 3.23042 26.6076 0 22.4727 0ZM8.98906 14.4862C8.15008 14.4862 7.49089 13.8343 7.49089 13.0376C7.49089 12.2408 8.16507 11.589 8.98906 11.589C9.81306 11.589 10.4872 12.2408 10.4872 13.0376C10.4872 13.8343 9.82804 14.4862 8.98906 14.4862ZM14.9818 14.4862C14.1428 14.4862 13.4836 13.8343 13.4836 13.0376C13.4836 12.2408 14.1578 11.589 14.9818 11.589C15.8058 11.589 16.4799 12.2408 16.4799 13.0376C16.4799 13.8343 15.8208 14.4862 14.9818 14.4862ZM20.9745 14.4862C20.1355 14.4862 19.4763 13.8343 19.4763 13.0376C19.4763 12.2408 20.1505 11.589 20.9745 11.589C21.7985 11.589 22.4727 12.2408 22.4727 13.0376C22.4727 13.8343 21.8135 14.4862 20.9745 14.4862Z" fill="white"/>
</svg>
