<svg width="28.957886" height="28.957886" viewBox="0 0 28.9579 28.9579" fill="none" xmlns="http://www.w3.org/2000/svg" xmlns:xlink="http://www.w3.org/1999/xlink">
	<defs/>
	<rect id="Rectangle 48" rx="8.000000" width="28.957895" height="28.957895" fill="#FFFFFF" fill-opacity="1.000000"/>
	<path id="Vector" d="M25.56 7.98L25.56 8.93L9.59 8.93L9.59 9.7C9.59 10.23 9.37 10.74 8.98 11.11C8.59 11.49 8.07 11.7 7.52 11.7C6.97 11.7 6.45 11.49 6.06 11.11C5.67 10.74 5.45 10.23 5.45 9.7L5.45 8.93L2 8.93L2 7.98L5.45 7.98L5.45 7.21C5.45 6.68 5.67 6.18 6.06 5.8C6.45 5.43 6.97 5.22 7.52 5.22C8.07 5.22 8.59 5.43 8.98 5.8C9.37 6.18 9.59 6.68 9.59 7.21L9.59 7.98L25.56 7.98ZM22.1 13.03C22.1 12.5 21.89 11.99 21.5 11.62C21.11 11.24 20.58 11.03 20.04 11.03C19.49 11.03 18.96 11.24 18.58 11.62C18.19 11.99 17.97 12.5 17.97 13.03L17.97 13.8L2 13.8L2 14.75L17.97 14.75L17.97 15.52C17.97 16.05 18.19 16.55 18.58 16.93C18.96 17.3 19.49 17.51 20.04 17.51C20.58 17.51 21.11 17.3 21.5 16.93C21.89 16.55 22.1 16.05 22.1 15.52L22.1 14.75L25.56 14.75L25.56 13.8L22.1 13.8L22.1 13.03ZM9.59 18.84C9.59 18.31 9.37 17.81 8.98 17.43C8.59 17.06 8.07 16.85 7.52 16.85C6.97 16.85 6.45 17.06 6.06 17.43C5.67 17.81 5.45 18.31 5.45 18.84L5.45 19.61L2 19.61L2 20.56L5.45 20.56L5.45 21.33C5.45 21.86 5.67 22.37 6.06 22.74C6.45 23.12 6.97 23.33 7.52 23.33C8.07 23.33 8.59 23.12 8.98 22.74C9.37 22.37 9.59 21.86 9.59 21.33L9.59 20.56L25.56 20.56L25.56 19.61L9.59 19.61L9.59 18.84Z" fill="#F55F42" fill-opacity="1.000000" fill-rule="nonzero"/>
</svg>
